HIERARCHY
ROOT Hips
{
	OFFSET -0.001795 -0.223333 0.028219
	CHANNELS 6 Xposition Yposition Zposition Zrotation Yrotation Xrotation 
	JOINT LeftUpLeg
	{
		OFFSET 0.069520 -0.091406 -0.006815
		CHANNELS 3 Zrotation Yrotation Xrotation
		JOINT LeftLeg
		{
			OFFSET 0.034277 -0.375199 -0.004496
			CHANNELS 3 Zrotation Yrotation Xrotation
			JOINT LeftFoot
			{
				OFFSET -0.013596 -0.397961 -0.043693
				CHANNELS 3 Zrotation Yrotation Xrotation
				JOINT LeftToe
				{
					OFFSET 0.026358 -0.055791 0.119288
					CHANNELS 3 Zrotation Yrotation Xrotation
					End Site
					{
						OFFSET 0.000000 0.000000 0.000000
					}
				}
			}
		}
	}
	JOINT RightUpLeg
	{
		OFFSET -0.067670 -0.090522 -0.004320
		CHANNELS 3 Zrotation Yrotation Xrotation
		JOINT RightLeg
		{
			OFFSET -0.038290 -0.382569 -0.008850
			CHANNELS 3 Zrotation Yrotation Xrotation
			JOINT RightFoot
			{
				OFFSET 0.015774 -0.398415 -0.042312
				CHANNELS 3 Zrotation Yrotation Xrotation
				JOINT RightToe
				{
					OFFSET -0.025372 -0.048144 0.123348
					CHANNELS 3 Zrotation Yrotation Xrotation
					End Site
					{
						OFFSET 0.000000 0.000000 0.000000
					}
				}
			}
		}
	}
	JOINT Spine
	{
		OFFSET -0.002533 0.108963 -0.026696
		CHANNELS 3 Zrotation Yrotation Xrotation
		JOINT Spine1
		{
			OFFSET 0.005487 0.135180 0.001092
			CHANNELS 3 Zrotation Yrotation Xrotation
			JOINT Spine2
			{
				OFFSET 0.001457 0.052922 0.025425
				CHANNELS 3 Zrotation Yrotation Xrotation
				JOINT Neck
				{
					OFFSET -0.002778 0.213870 -0.042857
					CHANNELS 3 Zrotation Yrotation Xrotation
					JOINT Head
					{
						OFFSET 0.005152 0.064970 0.051349
						CHANNELS 3 Zrotation Yrotation Xrotation
						End Site
						{
							OFFSET 0.000000 0.000000 0.000000
						}
					}
				}
				JOINT LeftShoulder
				{
					OFFSET 0.078845 0.121749 -0.034090
					CHANNELS 3 Zrotation Yrotation Xrotation
					JOINT LeftArm
					{
						OFFSET 0.090977 0.030469 -0.008868
						CHANNELS 3 Zrotation Yrotation Xrotation
						JOINT LeftForeArm
						{
							OFFSET 0.259612 -0.012772 -0.027456
							CHANNELS 3 Zrotation Yrotation Xrotation
							JOINT LeftHand
							{
								OFFSET 0.249234 0.008986 -0.001171
								CHANNELS 3 Zrotation Yrotation Xrotation
								End Site
								{
									OFFSET 0.000000 0.000000 0.000000
								}
							}
						}
					}
				}
				JOINT RightShoulder
				{
					OFFSET -0.081759 0.118833 -0.038615
					CHANNELS 3 Zrotation Yrotation Xrotation
					JOINT RightArm
					{
						OFFSET -0.096012 0.032551 -0.009143
						CHANNELS 3 Zrotation Yrotation Xrotation
						JOINT RightForeArm
						{
							OFFSET -0.253742 -0.013329 -0.021401
							CHANNELS 3 Zrotation Yrotation Xrotation
							JOINT RightHand
							{
								OFFSET -0.255298 0.007772 -0.005559
								CHANNELS 3 Zrotation Yrotation Xrotation
								End Site
								{
									OFFSET 0.000000 0.000000 0.000000
								}
							}
						}
					}
				}
			}
		}
	}
}
MOTION
Frames: 18
Frame Time: 0.050000
0.000000 0.951284 0.000000 -2.008946 -1.521619 6.949024 5.905337 -0.480630 -8.509115 -2.653811 0.234882 7.052202 2.484160 6.601933 4.392098 0.000000 0.000000 0.000000 -0.421691 0.899427 -9.083450 -0.106423 0.295503 6.730357 -2.297586 -7.175210 3.681365 0.000000 0.000000 0.000000 4.920125 0.508639 -7.711219 -1.648834 0.799359 -4.398093 -3.445349 4.906488 1.747248 8.900340 -3.261375 -18.345684 0.000000 0.000000 0.000000 1.750053 -18.905659 6.182476 0.822612 -51.154716 -3.861787 59.089684 -4.393853 -2.732648 0.000000 0.000000 0.000000 -4.136689 12.858273 4.288288 -1.830958 50.116523 -3.019406 -56.262847 -2.266744 3.298433 0.000000 0.000000 0.000000 
-0.000450 0.950818 0.004230 -2.739053 -0.812881 7.350257 6.716088 -0.448384 -8.207059 -2.195740 0.156813 6.206971 1.747924 5.140619 4.128208 0.000000 0.000000 0.000000 0.602892 0.908488 -8.811616 -0.601338 0.390423 7.149022 -3.102453 -9.162400 4.348403 0.000000 0.000000 0.000000 5.333980 0.624229 -8.974076 -0.728688 0.387426 -2.666714 -4.477838 5.305085 0.197462 10.278508 -3.880609 -18.456666 0.000000 0.000000 0.000000 -1.592286 -20.470223 6.763879 0.372603 -51.063006 -3.625823 54.857997 -6.493785 -3.583407 0.000000 0.000000 0.000000 -2.801485 13.492181 4.649883 -0.544763 49.094015 -2.304748 -53.670561 -1.192548 2.762811 0.000000 0.000000 0.000000 
-0.000532 0.949950 0.008274 -2.546472 -2.379176 6.206015 6.333078 -0.370694 -6.628280 -1.904031 0.123731 6.406491 1.815783 5.207778 4.149722 0.000000 0.000000 0.000000 -0.230590 0.801859 -8.032997 -0.655569 0.488875 8.708830 -2.517463 -7.814137 4.017145 0.000000 0.000000 0.000000 6.529478 0.603791 -7.759856 -2.132859 0.995142 -6.040030 -4.237802 6.482954 3.588383 11.183824 -4.359215 -19.268005 0.000000 0.000000 0.000000 -3.236567 -20.292620 6.789252 1.361924 -50.404996 -4.084929 49.072552 -9.046944 -4.150354 0.000000 0.000000 0.000000 -1.822446 14.715330 5.150939 -0.145631 48.020753 -2.269274 -51.256160 3.977310 0.242862 0.000000 0.000000 0.000000 
-0.000233 0.949870 0.011975 -2.863144 -1.230967 6.331058 6.796862 -0.382553 -6.909149 -1.710396 0.073597 6.701476 1.701660 5.003656 4.033423 0.000000 0.000000 0.000000 0.434515 0.806218 -7.887357 -0.561815 0.479787 9.096514 -2.866088 -8.516916 3.909561 0.000000 0.000000 0.000000 6.746460 0.718031 -8.949775 -2.174475 1.027939 -4.772767 -4.493999 6.391169 2.954145 11.713112 -4.593988 -19.195742 0.000000 0.000000 0.000000 -5.087695 -21.413484 7.214566 2.115540 -50.223991 -4.325105 42.702164 -9.313509 -3.588705 0.000000 0.000000 0.000000 -0.470465 15.001930 5.457527 -0.170409 47.415393 -2.204436 -43.603332 5.677476 -0.429140 0.000000 0.000000 0.000000 
0.000402 0.950118 0.015345 -2.696500 -1.481045 5.626179 6.630910 -0.357265 -6.390775 -1.767048 0.078379 7.195349 1.633659 4.817260 3.892943 0.000000 0.000000 0.000000 0.055606 0.740344 -7.350464 -0.034486 0.435351 10.206736 -2.620545 -7.687789 3.034258 0.000000 0.000000 0.000000 6.807212 0.721287 -8.761508 -2.345486 1.098736 -5.124991 -4.802048 7.026803 3.444448 12.107372 -4.695959 -19.644075 0.000000 0.000000 0.000000 -5.980328 -21.680789 7.297360 1.757624 -49.303053 -4.123539 36.900704 -10.032633 -3.233575 0.000000 0.000000 0.000000 0.291127 15.186129 5.651007 0.282559 45.657391 -1.983165 -36.757213 7.992685 -1.062108 0.000000 0.000000 0.000000 
0.001504 0.950895 0.018251 -2.683753 -1.320742 5.612411 6.491429 -0.368078 -6.484183 -1.648906 0.053577 7.317823 1.625991 4.525736 3.022584 0.000000 0.000000 0.000000 -0.018449 0.708975 -7.057507 0.035443 0.409882 9.986540 -2.776488 -8.024681 2.983404 0.000000 0.000000 0.000000 6.652675 0.762029 -9.260109 -2.329870 1.096016 -4.041621 -4.760114 6.828047 2.383390 11.719520 -4.428881 -19.664672 0.000000 0.000000 0.000000 -6.722371 -20.454138 6.809437 1.010903 -47.974879 -3.615178 31.229228 -10.304804 -2.690939 0.000000 0.000000 0.000000 0.079991 14.727440 5.451539 0.688010 44.232544 -1.768346 -29.103175 8.138299 -0.866620 0.000000 0.000000 0.000000 
0.002817 0.951474 0.020613 -2.750119 -1.305498 5.556635 6.513496 -0.359802 -6.268535 -1.633330 0.052663 7.199200 1.742673 4.843488 3.287304 0.000000 0.000000 0.000000 0.008040 0.722602 -7.185111 0.156906 0.405596 10.439432 -2.848328 -8.114173 2.737649 0.000000 0.000000 0.000000 6.507573 0.764656 -9.357138 -2.400623 1.126454 -4.353292 -4.302186 6.577881 2.817338 11.572286 -4.415169 -19.574157 0.000000 0.000000 0.000000 -6.941911 -19.461446 6.467365 1.068799 -45.353445 -3.351373 27.125464 -9.434173 -2.067022 0.000000 0.000000 0.000000 -0.049360 14.113084 5.182278 0.600316 42.085173 -1.772593 -23.483979 7.735951 -0.623515 0.000000 0.000000 0.000000 
0.004038 0.951974 0.022588 -2.961806 -1.055922 5.475895 6.564484 -0.356722 -6.139636 -1.585112 0.043463 7.068866 1.784730 4.794349 2.856773 0.000000 0.000000 0.000000 0.215555 0.718854 -7.095057 0.253332 0.378589 10.331702 -2.994365 -8.502712 2.925197 0.000000 0.000000 0.000000 6.354176 0.741945 -9.237135 -2.100861 0.999995 -3.827380 -4.397913 6.467451 1.808253 10.780069 -4.172893 -18.307169 0.000000 0.000000 0.000000 -6.483329 -18.782734 6.153491 0.802397 -42.328873 -2.942092 23.003365 -7.617980 -1.376150 0.000000 0.000000 0.000000 0.681308 12.647255 4.726018 0.820014 39.243370 -1.609585 -19.297236 7.124851 -0.392365 0.000000 0.000000 0.000000 
0.004851 0.952255 0.024266 -3.221430 -1.367747 5.620969 6.859503 -0.336782 -5.856143 -1.824096 0.093617 6.736159 1.961386 5.097135 2.740798 0.000000 0.000000 0.000000 0.662988 0.722335 -7.035249 0.030280 0.413819 10.032575 -2.686874 -7.729078 2.697453 0.000000 0.000000 0.000000 6.475608 0.746376 -9.198488 -2.359074 1.108057 -4.138696 -3.946887 5.890150 2.483658 10.090088 -3.984441 -17.762794 0.000000 0.000000 0.000000 -6.182509 -17.565208 5.787197 0.718883 -38.702501 -2.575650 20.957104 -5.169604 -0.834466 0.000000 0.000000 0.000000 0.859618 11.201217 4.151302 2.430215 36.620202 -1.213232 -18.152814 6.647254 -0.307983 0.000000 0.000000 0.000000 
0.005353 0.952376 0.025952 -3.349589 -1.195750 5.904954 7.188237 -0.340365 -6.054895 -2.393797 0.190388 6.576168 2.249607 5.729526 2.922607 0.000000 0.000000 0.000000 0.676646 0.738951 -7.188007 -0.066053 0.427617 9.982992 -2.589322 -7.547745 2.844838 0.000000 0.000000 0.000000 6.042656 0.706852 -9.120791 -2.051721 0.976725 -4.082899 -4.027979 5.680540 2.439316 8.715503 -3.156142 -17.866152 0.000000 0.000000 0.000000 -5.292335 -15.969765 5.168507 -0.546514 -35.414108 -2.009431 19.712548 -3.383872 -0.531077 0.000000 0.000000 0.000000 2.102879 9.040776 3.421109 5.289207 32.997667 -0.592848 -18.565784 7.407375 -0.398375 0.000000 0.000000 0.000000 
0.005685 0.952158 0.027751 -3.477153 -1.332758 6.215786 7.409094 -0.336517 -6.042242 -2.702730 0.245306 6.466705 2.398525 5.917361 2.582362 0.000000 0.000000 0.000000 0.829812 0.778926 -7.529869 -0.202651 0.468266 10.261755 -2.838116 -8.087406 2.706467 0.000000 0.000000 0.000000 5.809221 0.679816 -9.011584 -1.881817 0.902757 -4.377909 -3.968542 5.580687 3.030494 7.992491 -2.887741 -17.180879 0.000000 0.000000 0.000000 -5.339851 -13.781247 4.351160 -1.980632 -32.365838 -1.521567 19.146084 -2.168918 -0.353684 0.000000 0.000000 0.000000 3.118902 6.374136 2.428336 9.458383 29.165205 0.031786 -20.996793 9.372501 -0.740407 0.000000 0.000000 0.000000 
0.005960 0.951663 0.029511 -3.504590 -1.168513 6.481694 7.770425 -0.343916 -6.480034 -3.487744 0.374965 7.059869 2.674795 6.467593 2.574460 0.000000 0.000000 0.000000 0.938297 0.803717 -7.735380 -0.260620 0.482404 10.377735 -2.866586 -8.207660 2.888188 0.000000 0.000000 0.000000 5.669976 0.652126 -8.876341 -1.738281 0.843897 -4.661768 -3.929596 5.339487 3.831032 6.889673 -2.214322 -17.494929 0.000000 0.000000 0.000000 -5.603452 -11.183834 3.369608 -5.469257 -30.084880 -0.808053 20.427294 -2.514719 -0.447734 0.000000 0.000000 0.000000 4.791557 3.350537 1.256723 14.465880 25.638195 0.490450 -24.993868 11.527875 -1.284342 0.000000 0.000000 0.000000 
0.006258 0.950784 0.031235 -3.496107 -1.484022 6.895369 7.955220 -0.345834 -6.805752 -4.010827 0.473148 7.395161 2.844411 6.810783 2.625288 0.000000 0.000000 0.000000 0.857142 0.834638 -8.052717 -0.171303 0.468234 10.345614 -3.098070 -8.643943 2.527615 0.000000 0.000000 0.000000 5.615282 0.659595 -9.023306 -1.763001 0.849550 -4.586443 -3.973137 5.501703 4.184398 6.640561 -2.164258 -16.945453 0.000000 0.000000 0.000000 -6.744616 -9.159119 2.516025 -9.037763 -27.152994 -0.239308 22.259021 -4.412199 -0.825482 0.000000 0.000000 0.000000 6.491261 0.761173 0.179160 19.943553 21.530275 0.631342 -27.210061 14.439863 -1.972217 0.000000 0.000000 0.000000 
0.006593 0.949507 0.032966 -3.312112 -1.898197 6.820715 8.276472 -0.329002 -7.167540 -4.595249 0.597665 8.382886 3.119126 7.262512 2.305753 0.000000 0.000000 0.000000 0.481311 0.820511 -8.021824 0.179787 0.422463 10.708155 -3.187756 -8.705558 2.026520 0.000000 0.000000 0.000000 5.325509 0.637961 -8.856604 -1.676973 0.810188 -4.998501 -3.769501 5.784702 5.287286 5.658019 -1.554593 -17.210884 0.000000 0.000000 0.000000 -8.351407 -6.729397 1.421931 -14.636519 -24.476829 0.333179 26.169110 -9.078261 -1.973862 0.000000 0.000000 0.000000 8.736911 -1.555030 -0.871355 25.559110 17.705844 0.394106 -28.848863 17.719618 -2.784226 0.000000 0.000000 0.000000 
0.006895 0.948072 0.034597 -3.049363 -2.315566 6.953430 8.149876 -0.325297 -7.046880 -4.767651 0.636189 8.150338 3.254517 7.604568 2.626008 0.000000 0.000000 0.000000 -0.176138 0.788557 -7.882748 0.722167 0.327284 10.801470 -3.329180 -8.970051 1.798519 0.000000 0.000000 0.000000 5.275190 0.678453 -9.278886 -1.934660 0.913068 -4.276287 -4.035622 6.131170 5.250996 5.880209 -1.576129 -17.829646 0.000000 0.000000 0.000000 -10.614657 -5.539912 0.660065 -19.990889 -21.717080 0.635720 28.844015 -13.585694 -3.278887 0.000000 0.000000 0.000000 11.415428 -3.056817 -1.660863 31.522187 14.587243 0.020279 -28.171892 20.936546 -3.329919 0.000000 0.000000 0.000000 
0.006938 0.946438 0.035862 -2.749772 -2.733404 6.805173 8.115279 -0.310295 -6.818319 -5.131612 0.717104 8.287755 3.324602 7.747996 2.683185 0.000000 0.000000 0.000000 -0.705928 0.750631 -7.626343 0.706958 0.345578 11.008439 -3.112064 -8.359204 1.501411 0.000000 0.000000 0.000000 4.911669 0.691388 -9.530861 -1.858006 0.876319 -3.846678 -4.180116 6.582216 5.700359 5.980110 -1.520333 -18.468109 0.000000 0.000000 0.000000 -13.963485 -5.090509 0.029843 -25.095448 -19.105364 0.660902 29.491929 -18.504145 -4.553471 0.000000 0.000000 0.000000 15.024317 -3.677425 -2.114085 37.113700 12.080588 -0.570017 -26.509420 23.608249 -3.553932 0.000000 0.000000 0.000000 
0.006683 0.945052 0.036323 -2.723439 -3.009542 6.776201 8.156342 -0.298997 -6.681282 -5.229802 0.748280 8.542429 3.273114 7.671516 2.810944 0.000000 0.000000 0.000000 -0.934967 0.725970 -7.417126 1.049330 0.289524 11.160156 -3.248051 -8.651293 1.410394 0.000000 0.000000 0.000000 4.912910 0.723944 -9.822714 -1.848131 0.869700 -3.346493 -4.513709 6.837714 5.541614 6.102489 -1.459177 -19.195260 0.000000 0.000000 0.000000 -16.078150 -4.847088 -0.403321 -31.217103 -17.676591 0.758778 27.622346 -20.563286 -4.691357 0.000000 0.000000 0.000000 17.808611 -4.013817 -2.417829 43.428059 10.302533 -1.089546 -23.553902 25.327303 -3.284341 0.000000 0.000000 0.000000 
0.006008 0.943491 0.035971 -2.713237 -3.139171 6.525023 8.370198 -0.280520 -6.591549 -5.236526 0.760665 8.901183 3.439514 7.944175 2.585546 0.000000 0.000000 0.000000 -1.126725 0.723706 -7.437459 1.329074 0.256907 11.702191 -3.175748 -8.310193 0.914798 0.000000 0.000000 0.000000 4.774563 0.719465 -9.792451 -1.783367 0.841073 -2.908710 -4.715259 6.785321 5.397455 6.155019 -1.409109 -19.778490 0.000000 0.000000 0.000000 -18.112939 -5.046305 -0.559495 -37.161711 -16.266643 0.667349 23.616548 -21.933999 -4.140467 0.000000 0.000000 0.000000 19.881414 -3.804749 -2.448618 48.802931 9.769227 -1.263267 -19.499887 25.870467 -2.589822 0.000000 0.000000 0.000000 
